<svg xmlns="http://www.w3.org/2000/svg" viewBox="0 0 200 200" width="200" height="200">
  <!-- Bakgrunn -->
  <circle cx="100" cy="100" r="96" fill="#0d1b2a"/>
  <!-- Ytre ring (ground loop) -->
  <circle cx="100" cy="100" r="78" fill="none" stroke="#7a96b0" stroke-width="6" opacity="0.3"/>
  <!-- Loop-piler (sirkulerende vann) -->
  <path d="M100 22 A78 78 0 0 1 178 100" fill="none" stroke="#7a96b0" stroke-width="5" stroke-linecap="round"/>
  <polygon points="174,88 178,100 168,97" fill="#7a96b0"/>
  <path d="M100 178 A78 78 0 0 1 22 100" fill="none" stroke="#7a96b0" stroke-width="5" stroke-linecap="round"/>
  <polygon points="26,112 22,100 32,103" fill="#7a96b0"/>
  <!-- Snøfnugg (is-risiko) i midten -->
  <g stroke="#b8cad8" stroke-width="3" stroke-linecap="round" fill="none" transform="translate(100,96)">
    <!-- Vertikal -->
    <line x1="0" y1="-28" x2="0" y2="28"/>
    <line x1="-6" y1="-22" x2="0" y2="-28"/>
    <line x1="6" y1="-22" x2="0" y2="-28"/>
    <line x1="-6" y1="22" x2="0" y2="28"/>
    <line x1="6" y1="22" x2="0" y2="28"/>
    <!-- Skrå venstre -->
    <line x1="-24" y1="-14" x2="24" y2="14"/>
    <line x1="-20" y1="-7" x2="-24" y2="-14"/>
    <line x1="-17" y1="-16" x2="-24" y2="-14"/>
    <line x1="20" y1="7" x2="24" y2="14"/>
    <line x1="17" y1="16" x2="24" y2="14"/>
    <!-- Skrå høyre -->
    <line x1="24" y1="-14" x2="-24" y2="14"/>
    <line x1="17" y1="-16" x2="24" y2="-14"/>
    <line x1="20" y1="-7" x2="24" y2="-14"/>
    <line x1="-17" y1="16" x2="-24" y2="14"/>
    <line x1="-20" y1="7" x2="-24" y2="14"/>
  </g>
  <!-- Tekst -->
  <text x="100" y="156" text-anchor="middle" fill="#7a96b0" font-family="'DM Mono', monospace" font-size="14" font-weight="400" letter-spacing="3">GEOLOOP</text>
</svg>
